<svg id="visual" viewBox="0 0 900 600" width="900" height="600" xmlns="http://www.w3.org/2000/svg" xmlns:xlink="http://www.w3.org/1999/xlink" version="1.1"><g stroke-width="1" stroke-linejoin="bevel"><path d="M500 319L484 379L579 400Z" fill="#205a7a" stroke="#205a7a"></path><path d="M579 400L572 262L500 319Z" fill="#081a28" stroke="#081a28"></path><path d="M484 379L574 473L579 400Z" fill="#19435d" stroke="#19435d"></path><path d="M403 264L430 436L484 379Z" fill="#246688" stroke="#246688"></path><path d="M484 379L430 436L574 473Z" fill="#0c2435" stroke="#0c2435"></path><path d="M572 262L492 238L500 319Z" fill="#1d4e6b" stroke="#1d4e6b"></path><path d="M500 319L403 264L484 379Z" fill="#1d4e6b" stroke="#1d4e6b"></path><path d="M702 374L684 332L579 400Z" fill="#1d4e6b" stroke="#1d4e6b"></path><path d="M579 400L684 332L572 262Z" fill="#277297" stroke="#277297"></path><path d="M719 482L702 374L579 400Z" fill="#081a28" stroke="#081a28"></path><path d="M492 238L403 264L500 319Z" fill="#277297" stroke="#277297"></path><path d="M326 427L421 486L430 436Z" fill="#205a7a" stroke="#205a7a"></path><path d="M430 436L516 536L574 473Z" fill="#205a7a" stroke="#205a7a"></path><path d="M421 486L516 536L430 436Z" fill="#246688" stroke="#246688"></path><path d="M574 473L719 482L579 400Z" fill="#00101c" stroke="#00101c"></path><path d="M684 176L633 186L684 332Z" fill="#00101c" stroke="#00101c"></path><path d="M684 332L633 186L572 262Z" fill="#00101c" stroke="#00101c"></path><path d="M572 262L633 186L492 238Z" fill="#297ea6" stroke="#297ea6"></path><path d="M492 238L415 189L403 264Z" fill="#1d4e6b" stroke="#1d4e6b"></path><path d="M432 132L415 189L492 238Z" fill="#15384f" stroke="#15384f"></path><path d="M312 203L339 276L403 264Z" fill="#246688" stroke="#246688"></path><path d="M403 264L339 276L430 436Z" fill="#112e42" stroke="#112e42"></path><path d="M697 600L719 482L574 473Z" fill="#205a7a" stroke="#205a7a"></path><path d="M339 276L326 427L430 436Z" fill="#277297" stroke="#277297"></path><path d="M804 405L771 327L702 374Z" fill="#112e42" stroke="#112e42"></path><path d="M702 374L771 327L684 332Z" fill="#297ea6" stroke="#297ea6"></path><path d="M771 327L684 176L684 332Z" fill="#0c2435" stroke="#0c2435"></path><path d="M633 186L621 123L492 238Z" fill="#277297" stroke="#277297"></path><path d="M396 600L520 600L516 536Z" fill="#277297" stroke="#277297"></path><path d="M516 536L573 600L574 473Z" fill="#15384f" stroke="#15384f"></path><path d="M396 600L516 536L421 486Z" fill="#277297" stroke="#277297"></path><path d="M520 600L573 600L516 536Z" fill="#15384f" stroke="#15384f"></path><path d="M213 493L307 461L173 404Z" fill="#15384f" stroke="#15384f"></path><path d="M326 427L307 461L421 486Z" fill="#19435d" stroke="#19435d"></path><path d="M684 176L621 123L633 186Z" fill="#1d4e6b" stroke="#1d4e6b"></path><path d="M515 67L432 132L492 238Z" fill="#277297" stroke="#277297"></path><path d="M415 189L312 203L403 264Z" fill="#081a28" stroke="#081a28"></path><path d="M719 482L804 405L702 374Z" fill="#297ea6" stroke="#297ea6"></path><path d="M338 69L312 203L415 189Z" fill="#081a28" stroke="#081a28"></path><path d="M339 276L222 297L326 427Z" fill="#1d4e6b" stroke="#1d4e6b"></path><path d="M307 461L396 600L421 486Z" fill="#112e42" stroke="#112e42"></path><path d="M573 600L697 600L574 473Z" fill="#15384f" stroke="#15384f"></path><path d="M719 482L792 504L804 405Z" fill="#15384f" stroke="#15384f"></path><path d="M761 600L792 504L719 482Z" fill="#246688" stroke="#246688"></path><path d="M621 123L515 67L492 238Z" fill="#246688" stroke="#246688"></path><path d="M432 132L338 69L415 189Z" fill="#19435d" stroke="#19435d"></path><path d="M771 327L816 208L684 176Z" fill="#00101c" stroke="#00101c"></path><path d="M684 176L708 67L621 123Z" fill="#297ea6" stroke="#297ea6"></path><path d="M576 0L519 0L515 67Z" fill="#277297" stroke="#277297"></path><path d="M900 268L816 208L771 327Z" fill="#297ea6" stroke="#297ea6"></path><path d="M312 203L222 297L339 276Z" fill="#246688" stroke="#246688"></path><path d="M697 600L761 600L719 482Z" fill="#297ea6" stroke="#297ea6"></path><path d="M818 113L708 67L684 176Z" fill="#00101c" stroke="#00101c"></path><path d="M307 461L288 600L396 600Z" fill="#246688" stroke="#246688"></path><path d="M213 493L288 600L307 461Z" fill="#081a28" stroke="#081a28"></path><path d="M173 404L307 461L326 427Z" fill="#205a7a" stroke="#205a7a"></path><path d="M425 0L338 69L432 132Z" fill="#297ea6" stroke="#297ea6"></path><path d="M312 203L187 194L222 297Z" fill="#205a7a" stroke="#205a7a"></path><path d="M576 0L515 67L621 123Z" fill="#0c2435" stroke="#0c2435"></path><path d="M515 67L425 0L432 132Z" fill="#205a7a" stroke="#205a7a"></path><path d="M708 67L576 0L621 123Z" fill="#15384f" stroke="#15384f"></path><path d="M792 504L900 401L804 405Z" fill="#19435d" stroke="#19435d"></path><path d="M804 405L900 401L771 327Z" fill="#1d4e6b" stroke="#1d4e6b"></path><path d="M900 534L900 401L792 504Z" fill="#15384f" stroke="#15384f"></path><path d="M222 297L173 404L326 427Z" fill="#277297" stroke="#277297"></path><path d="M900 401L900 268L771 327Z" fill="#15384f" stroke="#15384f"></path><path d="M816 208L818 113L684 176Z" fill="#205a7a" stroke="#205a7a"></path><path d="M900 116L818 113L816 208Z" fill="#081a28" stroke="#081a28"></path><path d="M708 67L734 0L576 0Z" fill="#297ea6" stroke="#297ea6"></path><path d="M519 0L425 0L515 67Z" fill="#277297" stroke="#277297"></path><path d="M900 268L900 236L816 208Z" fill="#205a7a" stroke="#205a7a"></path><path d="M236 83L187 194L312 203Z" fill="#205a7a" stroke="#205a7a"></path><path d="M76 261L70 407L173 404Z" fill="#19435d" stroke="#19435d"></path><path d="M900 600L900 534L792 504Z" fill="#00101c" stroke="#00101c"></path><path d="M112 600L213 600L213 493Z" fill="#0c2435" stroke="#0c2435"></path><path d="M213 493L213 600L288 600Z" fill="#1d4e6b" stroke="#1d4e6b"></path><path d="M308 0L236 83L338 69Z" fill="#19435d" stroke="#19435d"></path><path d="M338 69L236 83L312 203Z" fill="#0c2435" stroke="#0c2435"></path><path d="M779 0L734 0L708 67Z" fill="#112e42" stroke="#112e42"></path><path d="M425 0L308 0L338 69Z" fill="#19435d" stroke="#19435d"></path><path d="M761 600L900 600L792 504Z" fill="#1d4e6b" stroke="#1d4e6b"></path><path d="M900 0L779 0L818 113Z" fill="#0c2435" stroke="#0c2435"></path><path d="M818 113L779 0L708 67Z" fill="#0c2435" stroke="#0c2435"></path><path d="M900 236L900 116L816 208Z" fill="#081a28" stroke="#081a28"></path><path d="M236 83L139 160L187 194Z" fill="#19435d" stroke="#19435d"></path><path d="M76 261L173 404L222 297Z" fill="#277297" stroke="#277297"></path><path d="M130 102L139 160L236 83Z" fill="#15384f" stroke="#15384f"></path><path d="M76 261L222 297L187 194Z" fill="#205a7a" stroke="#205a7a"></path><path d="M173 404L60 489L213 493Z" fill="#081a28" stroke="#081a28"></path><path d="M139 160L76 261L187 194Z" fill="#19435d" stroke="#19435d"></path><path d="M216 0L130 102L236 83Z" fill="#081a28" stroke="#081a28"></path><path d="M139 160L0 188L76 261Z" fill="#15384f" stroke="#15384f"></path><path d="M308 0L216 0L236 83Z" fill="#297ea6" stroke="#297ea6"></path><path d="M60 489L112 600L213 493Z" fill="#297ea6" stroke="#297ea6"></path><path d="M0 467L60 489L70 407Z" fill="#081a28" stroke="#081a28"></path><path d="M70 407L60 489L173 404Z" fill="#19435d" stroke="#19435d"></path><path d="M900 116L900 0L818 113Z" fill="#277297" stroke="#277297"></path><path d="M0 301L0 421L70 407Z" fill="#1d4e6b" stroke="#1d4e6b"></path><path d="M60 489L0 600L112 600Z" fill="#1d4e6b" stroke="#1d4e6b"></path><path d="M0 301L70 407L76 261Z" fill="#277297" stroke="#277297"></path><path d="M0 188L0 301L76 261Z" fill="#246688" stroke="#246688"></path><path d="M0 421L0 467L70 407Z" fill="#19435d" stroke="#19435d"></path><path d="M216 0L109 0L130 102Z" fill="#246688" stroke="#246688"></path><path d="M130 102L0 188L139 160Z" fill="#112e42" stroke="#112e42"></path><path d="M0 93L0 188L130 102Z" fill="#081a28" stroke="#081a28"></path><path d="M0 467L0 600L60 489Z" fill="#081a28" stroke="#081a28"></path><path d="M109 0L0 93L130 102Z" fill="#19435d" stroke="#19435d"></path><path d="M109 0L0 0L0 93Z" fill="#00101c" stroke="#00101c"></path></g></svg>