<svg id="visual" viewBox="0 0 900 600" width="900" height="600" xmlns="http://www.w3.org/2000/svg" xmlns:xlink="http://www.w3.org/1999/xlink" version="1.1"><path d="M0 109L13.7 102C27.3 95 54.7 81 82 73C109.3 65 136.7 63 163.8 63C191 63 218 65 245.2 70C272.3 75 299.7 83 327 85C354.3 87 381.7 83 409 85C436.3 87 463.7 95 491 103C518.3 111 545.7 119 573 121C600.3 123 627.7 119 654.8 116C682 113 709 111 736.2 104C763.3 97 790.7 85 818 94C845.3 103 872.7 133 886.3 148L900 163L900 0L886.3 0C872.7 0 845.3 0 818 0C790.7 0 763.3 0 736.2 0C709 0 682 0 654.8 0C627.7 0 600.3 0 573 0C545.7 0 518.3 0 491 0C463.7 0 436.3 0 409 0C381.7 0 354.3 0 327 0C299.7 0 272.3 0 245.2 0C218 0 191 0 163.8 0C136.7 0 109.3 0 82 0C54.7 0 27.3 0 13.7 0L0 0Z" fill="#ffa35e"></path><path d="M0 145L13.7 143C27.3 141 54.7 137 82 132C109.3 127 136.7 121 163.8 119C191 117 218 119 245.2 127C272.3 135 299.7 149 327 157C354.3 165 381.7 167 409 170C436.3 173 463.7 177 491 185C518.3 193 545.7 205 573 209C600.3 213 627.7 209 654.8 199C682 189 709 173 736.2 163C763.3 153 790.7 149 818 160C845.3 171 872.7 197 886.3 210L900 223L900 161L886.3 146C872.7 131 845.3 101 818 92C790.7 83 763.3 95 736.2 102C709 109 682 111 654.8 114C627.7 117 600.3 121 573 119C545.7 117 518.3 109 491 101C463.7 93 436.3 85 409 83C381.7 81 354.3 85 327 83C299.7 81 272.3 73 245.2 68C218 63 191 61 163.8 61C136.7 61 109.3 63 82 71C54.7 79 27.3 93 13.7 100L0 107Z" fill="#fc8e3b"></path><path d="M0 211L13.7 218C27.3 225 54.7 239 82 237C109.3 235 136.7 217 163.8 206C191 195 218 191 245.2 192C272.3 193 299.7 199 327 209C354.3 219 381.7 233 409 241C436.3 249 463.7 251 491 257C518.3 263 545.7 273 573 285C600.3 297 627.7 311 654.8 305C682 299 709 273 736.2 252C763.3 231 790.7 215 818 221C845.3 227 872.7 255 886.3 269L900 283L900 221L886.3 208C872.7 195 845.3 169 818 158C790.7 147 763.3 151 736.2 161C709 171 682 187 654.8 197C627.7 207 600.3 211 573 207C545.7 203 518.3 191 491 183C463.7 175 436.3 171 409 168C381.7 165 354.3 163 327 155C299.7 147 272.3 133 245.2 125C218 117 191 115 163.8 117C136.7 119 109.3 125 82 130C54.7 135 27.3 139 13.7 141L0 143Z" fill="#f7770f"></path><path d="M0 319L13.7 345C27.3 371 54.7 423 82 428C109.3 433 136.7 391 163.8 387C191 383 218 417 245.2 438C272.3 459 299.7 467 327 478C354.3 489 381.7 503 409 492C436.3 481 463.7 445 491 428C518.3 411 545.7 413 573 428C600.3 443 627.7 471 654.8 460C682 449 709 399 736.2 376C763.3 353 790.7 357 818 367C845.3 377 872.7 393 886.3 401L900 409L900 281L886.3 267C872.7 253 845.3 225 818 219C790.7 213 763.3 229 736.2 250C709 271 682 297 654.8 303C627.7 309 600.3 295 573 283C545.7 271 518.3 261 491 255C463.7 249 436.3 247 409 239C381.7 231 354.3 217 327 207C299.7 197 272.3 191 245.2 190C218 189 191 193 163.8 204C136.7 215 109.3 233 82 235C54.7 237 27.3 223 13.7 216L0 209Z" fill="#d5670f"></path><path d="M0 601L13.7 601C27.3 601 54.7 601 82 601C109.3 601 136.7 601 163.8 601C191 601 218 601 245.2 601C272.3 601 299.7 601 327 601C354.3 601 381.7 601 409 601C436.3 601 463.7 601 491 601C518.3 601 545.7 601 573 601C600.3 601 627.7 601 654.8 601C682 601 709 601 736.2 601C763.3 601 790.7 601 818 601C845.3 601 872.7 601 886.3 601L900 601L900 407L886.3 399C872.7 391 845.3 375 818 365C790.7 355 763.3 351 736.2 374C709 397 682 447 654.8 458C627.7 469 600.3 441 573 426C545.7 411 518.3 409 491 426C463.7 443 436.3 479 409 490C381.7 501 354.3 487 327 476C299.7 465 272.3 457 245.2 436C218 415 191 381 163.8 385C136.7 389 109.3 431 82 426C54.7 421 27.3 369 13.7 343L0 317Z" fill="#b5580e"></path></svg>